<svg width="149" height="34" viewBox="0 0 149 34" fill="none" xmlns="http://www.w3.org/2000/svg">
<path d="M64.961 12.6822L63.1783 14.3767C61.9655 13.102 60.6012 12.4647 59.0853 12.4647C57.8059 12.4647 56.7266 12.8997 55.8474 13.7696C54.9742 14.6395 54.5376 15.7118 54.5376 16.9864C54.5376 17.8744 54.7317 18.6628 55.1197 19.3515C55.5078 20.0401 56.0566 20.5808 56.766 20.9735C57.4754 21.3661 58.2637 21.5625 59.1308 21.5625C59.8706 21.5625 60.5467 21.4265 61.1591 21.1547C61.7715 20.8768 62.4446 20.3754 63.1783 19.6505L64.9064 21.4447C63.918 22.4052 62.9842 23.0727 62.105 23.4472C61.2258 23.8158 60.2223 24 59.0944 24C57.0146 24 55.3107 23.3446 53.9828 22.0337C52.6609 20.7167 52 19.0313 52 16.9773C52 15.6483 52.3001 14.4673 52.9004 13.4343C53.5068 12.4013 54.3709 11.5707 55.4926 10.9424C56.6205 10.3141 57.8332 10 59.1308 10C60.2344 10 61.2955 10.2326 62.3142 10.6977C63.3389 11.1629 64.2212 11.8244 64.961 12.6822Z" fill="#CEC7DD"/>
<path d="M73.8923 10C75.7841 10 77.4092 10.6826 78.7674 12.0479C80.1317 13.4132 80.8139 15.0775 80.8139 17.0408C80.8139 18.986 80.1408 20.6321 78.7947 21.9793C77.4547 23.3264 75.8266 24 73.9105 24C71.9034 24 70.2359 23.3083 68.908 21.9249C67.5801 20.5415 66.9161 18.8984 66.9161 16.9955C66.9161 15.7208 67.2254 14.5489 67.8438 13.4796C68.4623 12.4104 69.3112 11.5646 70.3906 10.9424C71.4759 10.3141 72.6432 10 73.8923 10ZM73.865 12.4828C72.628 12.4828 71.5881 12.9118 70.7453 13.7696C69.9024 14.6274 69.481 15.7178 69.481 17.0408C69.481 18.5148 70.0116 19.6807 71.0727 20.5385C71.8974 21.2091 72.8433 21.5443 73.9105 21.5443C75.1171 21.5443 76.1449 21.1094 76.9938 20.2395C77.8427 19.3696 78.2672 18.2973 78.2672 17.0227C78.2672 15.754 77.8397 14.6818 76.9847 13.8058C76.1298 12.9238 75.0899 12.4828 73.865 12.4828Z" fill="#CEC7DD"/>
<path d="M83.5876 23.6647V10.3353H85.6887C86.9075 10.3353 87.7988 10.4138 88.3627 10.5709C89.1631 10.7823 89.7998 11.175 90.2728 11.7489C90.7457 12.3228 90.9822 12.9994 90.9822 13.7786C90.9822 14.2861 90.8731 14.7482 90.6548 15.165C90.4425 15.5758 90.0939 15.9625 89.6088 16.3249C90.4213 16.7055 91.0155 17.1827 91.3915 17.7566C91.7674 18.3245 91.9554 18.9981 91.9554 19.7773C91.9554 20.5264 91.7614 21.2091 91.3733 21.8252C90.9852 22.4414 90.485 22.9036 89.8726 23.2117C89.2601 23.5137 88.4143 23.6647 87.3349 23.6647H83.5876ZM86.1343 12.7547V15.5638H86.6892C87.3077 15.5638 87.7655 15.4339 88.0626 15.1741C88.3658 14.9143 88.5173 14.5609 88.5173 14.1139C88.5173 13.6971 88.3748 13.3679 88.0899 13.1262C87.8049 12.8785 87.3713 12.7547 86.7892 12.7547H86.1343ZM86.1343 17.8291V21.2453H86.771C87.8261 21.2453 88.5355 21.1124 88.8994 20.8466C89.2692 20.5808 89.4542 20.1942 89.4542 19.6867C89.4542 19.1128 89.2389 18.6598 88.8084 18.3275C88.3779 17.9953 87.6624 17.8291 86.6619 17.8291H86.1343Z" fill="#CEC7DD"/>
<path d="M94.7746 10.3353H102.078V12.8181H97.3031V15.2285H102.078V17.666H97.3031V21.1728H102.078V23.6647H94.7746V10.3353Z" fill="#CEC7DD"/>
<path d="M103.515 10.3353H110.91V12.8362H108.472V23.6647H105.889V12.8362H103.515V10.3353Z" fill="#CEC7DD"/>
<path d="M113.019 10.3353H115.602V15.3644H120.077V10.3353H122.651V23.6647H120.077V17.8201H115.602V23.6647H113.019V10.3353Z" fill="#CEC7DD"/>
<path d="M135.83 10.3353V23.6647H133.283V15.3191L128.29 23.6647H126.071V10.3353H128.618V18.9528L133.684 10.3353H135.83Z" fill="#CEC7DD"/>
<path d="M139.277 10.3353H141.851V14.9204L145.48 10.3353H148.545L143.87 16.2796L149 23.6647H145.98L141.851 17.7476V23.6647H139.277V10.3353Z" fill="#CEC7DD"/>
<path d="M3.8715 7.06413C3.68361 6.95655 3.49346 6.89252 3.31095 6.81226C3.13259 6.73391 2.95225 6.65982 2.77295 6.58374C2.58779 6.50519 2.40274 6.42636 2.21749 6.34791C2.03234 6.26945 1.847 6.19119 1.66175 6.11293C1.47641 6.03467 1.29107 5.95678 1.10572 5.87852C0.926235 5.80273 0.74665 5.72712 0.567348 5.65085C0.382479 5.57221 0.197892 5.49281 0 5.408C0.0257628 5.37233 0.0414286 5.33856 0.0671914 5.31674C0.807612 4.68912 1.56191 4.07991 2.38112 3.55664C2.79843 3.29008 3.24224 3.0883 3.72664 2.98149C4.14876 2.88842 4.57294 2.85664 4.99713 2.96156C5.13038 2.99458 5.26137 3.04305 5.38745 3.09817C5.84249 3.29691 6.29509 3.50153 6.74872 3.70368C6.81167 3.73176 6.87537 3.75804 6.95077 3.79029C7.00824 3.74675 7.06873 3.70302 7.12705 3.65653C8.24127 2.76947 9.449 2.03759 10.7471 1.45617C11.4824 1.12681 12.2381 0.852653 13.0131 0.634088C13.5394 0.485721 14.0724 0.365814 14.6106 0.267061C15.2921 0.142031 15.9795 0.0721162 16.669 0.0186132C16.8568 0.00400418 17.0459 0.00428884 17.2346 0.00163266C17.4294 -0.00111838 17.6244 0.0026762 17.8194 0.000494342C18.3548 -0.00548206 18.8866 0.0436572 19.4186 0.0977294C19.8507 0.141651 20.279 0.207771 20.7058 0.283757C20.984 0.333276 21.2606 0.394273 21.5355 0.459918C22.1531 0.607431 22.7613 0.788051 23.3579 1.00605C24.9821 1.59932 26.483 2.42008 27.8567 3.47449C28.0112 3.59317 28.1644 3.71355 28.3248 3.8382C28.3781 3.81761 28.4306 3.79978 28.4812 3.77739C29.01 3.54336 29.5408 3.31351 30.0665 3.07255C30.4879 2.87941 30.928 2.84877 31.3769 2.90275C31.9334 2.96963 32.4495 3.15964 32.9303 3.44983C33.3893 3.72673 33.8253 4.03675 34.2476 4.36592C34.6102 4.64852 34.9645 4.94193 35.3217 5.23136C35.3648 5.26618 35.4038 5.30602 35.4551 5.35317C35.406 5.39956 35.3533 5.41464 35.3038 5.43551C34.29 5.86211 33.2762 6.2889 32.2625 6.71579C32.0018 6.82554 31.7412 6.93549 31.481 7.04629C31.4476 7.06052 31.4167 7.08092 31.3845 7.09866C31.6603 7.53759 31.9359 7.9659 32.201 8.40066C32.4672 8.83712 32.6984 9.29295 32.9164 9.7555C33.1344 10.218 33.3298 10.69 33.5049 11.1704C33.6799 11.6507 33.833 12.1383 33.9631 12.6328C34.0932 13.1274 34.2021 13.6271 34.2856 14.1318C34.3691 14.6366 34.4225 15.1452 34.4749 15.6543C34.5274 16.165 34.5309 16.6754 34.537 17.1871C34.5431 17.7004 34.4836 18.2085 34.4375 18.7178C34.3919 19.2214 34.3164 19.7209 34.2215 20.2173C34.1255 20.7198 34.0069 21.2168 33.8662 21.7086C33.7255 22.2003 33.562 22.684 33.3776 23.1608C33.1932 23.6378 32.9876 24.1051 32.7608 24.5633C32.534 25.0217 32.2865 25.4684 32.02 25.9047C31.7534 26.3411 31.4664 26.7636 31.1613 27.1735C30.8561 27.5835 30.5327 27.9785 30.192 28.3595C29.8514 28.7405 29.4934 29.1043 29.1207 29.4535C28.7481 29.8027 28.3595 30.1332 27.9563 30.4466C21.4632 35.4929 12.3132 35.1299 6.22837 29.5777C3.09663 26.6512 1.23803 23.0657 0.79525 18.7842C0.352941 14.5083 1.40119 10.6045 3.8715 7.06413ZM3.30198 18.0022C3.29226 18.0744 3.28207 18.1106 3.2833 18.1466C3.29141 18.3865 3.28999 18.6275 3.31415 18.8658C3.37606 19.4763 3.49308 20.0773 3.65624 20.6687C3.90877 21.5837 4.24973 22.4648 4.66514 23.3178C4.71657 23.4234 4.78622 23.4814 4.89248 23.5241C5.48191 23.7607 6.05615 24.0313 6.62293 24.3181C8.08527 25.0579 9.47986 25.9105 10.8134 26.8641C11.7208 27.513 12.5925 28.207 13.4274 28.9479C14.2625 29.689 15.056 30.4721 15.8017 31.3039C15.8776 31.3886 15.9566 31.4367 16.0729 31.4482C16.5862 31.499 17.0998 31.5382 17.6159 31.5428C18.2267 31.5483 18.8347 31.5107 19.4418 31.4456C19.5433 31.4347 19.6136 31.3934 19.6816 31.3191C19.9755 30.9985 20.269 30.6771 20.5737 30.367C21.9158 29.0009 23.3755 27.7752 24.9448 26.6806C26.0304 25.9233 27.1593 25.2379 28.331 24.6245C29.005 24.2716 29.6906 23.9417 30.4001 23.6651C30.4876 23.6311 30.5472 23.5788 30.5849 23.4903C30.6465 23.3453 30.7216 23.206 30.7849 23.0616C31.1504 22.2282 31.4571 21.3749 31.6607 20.4854C31.7835 19.9488 31.8725 19.4074 31.9066 18.8577C31.9164 18.7003 31.9149 18.542 31.9154 18.3842C31.9155 18.3578 31.899 18.3313 31.8906 18.3065C31.8713 18.3106 31.8636 18.31 31.8593 18.3135C31.8401 18.3296 31.8211 18.3462 31.8034 18.364C31.3358 18.8306 30.8062 19.2119 30.223 19.5184C29.3321 19.9865 28.3793 20.2488 27.3854 20.3687C26.6135 20.4619 25.8431 20.4544 25.0735 20.3302C24.6565 20.2629 24.2469 20.1695 23.8488 20.0303C22.5291 19.5686 21.4347 18.8009 20.6405 17.6288C20.6211 17.6001 20.5893 17.5799 20.5571 17.5501C20.3168 17.7483 20.0839 17.9401 19.8512 18.1324C19.6133 18.3291 19.3756 18.526 19.138 18.7229C18.9052 18.9159 18.6744 19.1114 18.4394 19.3015C18.2008 19.4945 17.9723 19.7005 17.7177 19.8891C17.4799 19.6869 17.2501 19.4916 17.0202 19.2963C16.7898 19.1005 16.5594 18.9046 16.329 18.7089C16.0936 18.5091 15.8604 18.307 15.6223 18.1105C15.3906 17.9193 15.1712 17.7126 14.921 17.528C14.8871 17.5695 14.8594 17.6018 14.8334 17.6356C14.7183 17.7856 14.6119 17.9433 14.4876 18.0851C13.5714 19.1297 12.4169 19.7699 11.0799 20.0931C10.6515 20.1967 10.2153 20.25 9.77533 20.2826C9.12541 20.3309 8.4804 20.2871 7.83859 20.1946C7.37835 20.1283 6.92548 20.0226 6.48005 19.884C5.32044 19.5231 4.28635 18.948 3.41362 18.0924C3.38823 18.0671 3.35794 18.0469 3.30198 18.0022ZM32.3574 13.3998C32.3623 10.1884 29.7778 7.56121 26.5699 7.53702C23.3493 7.51274 20.7096 10.1164 20.6928 13.3673C20.6762 16.5927 23.247 19.2297 26.4716 19.2585C29.758 19.2877 32.3612 16.6159 32.3574 13.3998ZM3.13749 13.3963C3.13466 16.5944 5.69499 19.235 8.92591 19.2585C12.2002 19.2824 14.8176 16.6193 14.8027 13.3708C14.7878 10.1349 12.1703 7.53493 8.96668 7.53683C5.74435 7.53863 3.13674 10.167 3.13749 13.3963ZM9.68436 4.95057C9.73579 4.97571 9.78977 5.00464 9.84564 5.02902C11.2054 5.62201 12.5647 6.21595 13.9255 6.80638C14.5194 7.06403 15.1172 7.31248 15.7114 7.56937C15.9061 7.65351 16.1086 7.6833 16.317 7.69231C16.5321 7.70161 16.7453 7.67875 16.9549 7.63777C17.216 7.58673 17.4635 7.49642 17.6716 7.31988C17.6897 7.30451 17.7141 7.29654 17.7407 7.2825C17.7891 7.31618 17.836 7.34701 17.8809 7.3805C17.9982 7.46805 18.128 7.53218 18.2654 7.57829C18.6417 7.70455 19.0294 7.72732 19.4208 7.68662C19.5192 7.67638 19.6182 7.64583 19.7107 7.60874C19.9791 7.50135 20.2452 7.38818 20.5105 7.2733C21.6813 6.76616 22.8518 6.25807 24.022 5.74922C24.5754 5.50855 25.1277 5.26551 25.6804 5.02352C25.73 5.00179 25.7849 4.98756 25.8211 4.93027C25.7922 4.90399 25.7714 4.88103 25.7468 4.86348C25.5672 4.73589 25.3905 4.60356 25.206 4.48346C24.163 3.80414 23.0264 3.33912 21.8309 3.01279C21.1754 2.83378 20.5105 2.70126 19.8371 2.6081C19.3444 2.53999 18.8503 2.48962 18.3542 2.46884C17.7824 2.44494 17.2107 2.45291 16.6389 2.49929C16.0113 2.55024 15.3887 2.63334 14.7711 2.75106C14.333 2.83454 13.8998 2.94155 13.4704 3.06459C12.5911 3.31645 11.7451 3.64932 10.9407 4.08665C10.5365 4.30635 10.1495 4.55356 9.78137 4.83019C9.74315 4.85893 9.68936 4.87657 9.68436 4.95057ZM17.7402 18.5207C17.7839 18.4807 17.8132 18.4582 17.8374 18.4311C18.0094 18.2381 18.1801 18.044 18.3518 17.8508C18.8709 17.2662 19.3902 16.6819 19.9095 16.0974C19.9346 16.0691 19.9591 16.0403 19.9836 16.0116C20.0202 15.9687 20.0231 15.9221 20.003 15.8703C19.9538 15.7433 19.8719 15.6413 19.7705 15.5533C19.601 15.4062 19.4027 15.3129 19.1928 15.2418C18.7721 15.0994 18.3359 15.0483 17.8958 15.0214C17.5928 15.0029 17.2922 15.0381 16.9936 15.0806C16.7139 15.1204 16.437 15.1797 16.1738 15.2892C15.9983 15.3621 15.8323 15.45 15.6928 15.582C15.6094 15.6608 15.5424 15.7502 15.4981 15.8579C15.4703 15.9253 15.4793 15.9789 15.5273 16.031C15.5786 16.0866 15.6274 16.1446 15.6776 16.2012C16.2379 16.8334 16.7982 17.4657 17.3589 18.0976C17.4799 18.2338 17.6029 18.3683 17.7402 18.5207Z" fill="#CEC7DD"/>
<path d="M24.1152 10.5213C24.8913 10.3896 26.1654 10.7837 26.8224 11.9658C27.4491 13.0935 27.2511 14.4823 26.3546 15.3914C25.4438 16.3152 24.0575 16.4927 22.9657 15.8994C21.7523 15.24 21.3482 13.9302 21.4863 13.0981C21.5274 13.0621 21.5686 13.0867 21.6101 13.0976C21.957 13.1892 22.3108 13.2047 22.6541 13.111C23.4186 12.9024 23.9106 12.404 24.1308 11.6371C24.1818 11.4597 24.2042 11.2799 24.1982 11.0951C24.1941 10.9683 24.1871 10.8436 24.1493 10.7212C24.1294 10.6565 24.1172 10.5887 24.1152 10.5213Z" fill="#CEC7DD"/>
<path d="M11.4394 10.5098C11.4252 10.5919 11.4203 10.6552 11.403 10.7148C11.3175 11.008 11.3253 11.2986 11.408 11.5917C11.4492 11.7379 11.4926 11.8823 11.5601 12.0182C11.8669 12.6364 12.3607 13.0157 13.033 13.1418C13.3231 13.1961 13.6215 13.1842 13.9123 13.1088C13.9536 13.0981 13.9957 13.0897 14.0499 13.0775C14.0614 13.1194 14.0771 13.1529 14.0792 13.1873C14.1641 14.5679 13.2569 15.7956 11.9689 16.1447C10.7981 16.4621 9.59345 16.0009 8.92116 15.0789C8.48603 14.4823 8.29181 13.813 8.37071 13.082C8.46592 12.2 8.88502 11.4943 9.61704 10.9895C10.1188 10.6436 10.6777 10.478 11.2881 10.4971C11.3312 10.4983 11.3741 10.5042 11.4394 10.5098Z" fill="#CEC7DD"/>
</svg>
