<svg width="34" height="34" viewBox="0 0 34 34" fill="none" xmlns="http://www.w3.org/2000/svg">
<circle cx="17" cy="17" r="17" fill="#3B1788"/>
<path d="M26.6608 11.9402H23.3312C23.1953 11.9402 23.0619 11.977 22.9453 12.0468C22.8286 12.1166 22.7331 12.2167 22.6689 12.3364C22.6689 12.3364 21.3409 14.7821 20.9143 15.6059C19.7667 17.8219 19.0236 17.1262 19.0236 16.0977V12.5515C19.0236 12.2552 18.9059 11.971 18.6964 11.7615C18.4868 11.5519 18.2026 11.4342 17.9063 11.4342H15.4028C15.0619 11.4089 14.7202 11.4711 14.4101 11.615C14.0999 11.7589 13.8318 11.9797 13.631 12.2564C13.631 12.2564 14.9022 12.0509 14.9022 13.7637C14.9022 14.1885 14.9241 15.4103 14.944 16.4351C14.9478 16.5862 14.9051 16.7347 14.8218 16.8607C14.7384 16.9867 14.6184 17.0841 14.478 17.1397C14.3375 17.1954 14.1834 17.2066 14.0364 17.1718C13.8894 17.1371 13.7566 17.0581 13.6559 16.9455C12.6312 15.5203 11.7824 13.9765 11.1279 12.3478C11.0717 12.2259 10.9817 12.1228 10.8687 12.0505C10.7556 11.9783 10.6242 11.94 10.49 11.9402C9.76792 11.9402 8.32294 11.9402 7.46481 11.9402C7.3816 11.9396 7.29949 11.9593 7.22555 11.9974C7.1516 12.0356 7.08802 12.0911 7.04028 12.1593C6.99254 12.2275 6.96206 12.3062 6.95146 12.3887C6.94085 12.4713 6.95045 12.5551 6.97941 12.6331C7.89801 15.1529 11.855 23.0711 16.3716 23.0711H18.2726C18.4718 23.0711 18.6628 22.992 18.8036 22.8512C18.9445 22.7103 19.0236 22.5193 19.0236 22.3201V21.1722C19.0236 21.0282 19.0657 20.8874 19.1448 20.767C19.2239 20.6467 19.3364 20.5521 19.4686 20.4949C19.6008 20.4377 19.7468 20.4205 19.8886 20.4453C20.0305 20.47 20.162 20.5358 20.2669 20.6344L22.5423 22.7722C22.7466 22.9642 23.0165 23.0711 23.2969 23.0711H26.2848C27.7259 23.0711 27.726 22.0711 26.9402 21.2973C26.3873 20.7528 24.3919 18.6495 24.3919 18.6495C24.2211 18.4725 24.1191 18.2402 24.1046 17.9946C24.0901 17.749 24.1638 17.5063 24.3126 17.3104C24.9576 16.4616 26.0125 15.0723 26.4599 14.4771C27.0714 13.6636 28.1782 11.9402 26.6608 11.9402Z" fill="white"/>
</svg>
