<svg width="34" height="34" viewBox="0 0 34 34" fill="none" xmlns="http://www.w3.org/2000/svg">
<circle cx="17" cy="17" r="17" fill="#3B1788"/>
<path fill-rule="evenodd" clip-rule="evenodd" d="M25.1428 13.8633C25.1428 13.8633 24.9803 12.7181 24.4819 12.2137C23.8503 11.5519 23.1418 11.5488 22.817 11.51C20.4917 11.3418 17.0034 11.3418 17.0034 11.3418H16.9961C16.9961 11.3418 13.508 11.3418 11.1825 11.51C10.8577 11.5488 10.1496 11.5519 9.51755 12.2137C9.01921 12.7181 8.85709 13.8633 8.85709 13.8633C8.85709 13.8633 8.69092 15.208 8.69092 16.5527V17.8136C8.69092 19.1582 8.85709 20.5029 8.85709 20.5029C8.85709 20.5029 9.01921 21.6481 9.51755 22.1525C10.1496 22.8144 10.9799 22.7932 11.3497 22.8626C12.6793 22.9902 16.9997 23.0297 16.9997 23.0297C16.9997 23.0297 20.4917 23.0244 22.817 22.8564C23.1418 22.8176 23.8503 22.8144 24.4819 22.1525C24.9803 21.6481 25.1428 20.5029 25.1428 20.5029C25.1428 20.5029 25.3086 19.1582 25.3086 17.8136V16.5527C25.3086 15.208 25.1428 13.8633 25.1428 13.8633ZM15.2843 19.3412L15.2835 14.6722L19.7736 17.0147L15.2843 19.3412Z" fill="white"/>
</svg>
