<svg width="34" height="34" viewBox="0 0 34 34" fill="none" xmlns="http://www.w3.org/2000/svg">
<circle cx="17" cy="17" r="17" fill="#3B1788"/>
<path d="M16.9485 13.0078C14.5499 13.0078 12.5625 14.9609 12.5625 17.3938C12.5625 19.8267 14.5156 21.7798 16.9485 21.7798C19.3813 21.7798 21.3345 19.7924 21.3345 17.3938C21.3345 14.9952 19.3471 13.0078 16.9485 13.0078ZM16.9485 20.2036C15.4065 20.2036 14.1387 18.9358 14.1387 17.3938C14.1387 15.8519 15.4065 14.584 16.9485 14.584C18.4904 14.584 19.7583 15.8519 19.7583 17.3938C19.7583 18.9358 18.4904 20.2036 16.9485 20.2036Z" fill="white"/>
<path d="M21.5059 13.8985C22.0547 13.8985 22.4996 13.4536 22.4996 12.9048C22.4996 12.356 22.0547 11.9111 21.5059 11.9111C20.9571 11.9111 20.5122 12.356 20.5122 12.9048C20.5122 13.4536 20.9571 13.8985 21.5059 13.8985Z" fill="white"/>
<path d="M24.0758 10.3351C23.1849 9.40989 21.917 8.93018 20.4779 8.93018H13.4192C10.4381 8.93018 8.45068 10.9176 8.45068 13.8987V20.9231C8.45068 22.3965 8.9304 23.6644 9.88984 24.5895C10.815 25.4804 12.0486 25.9259 13.4535 25.9259H20.4436C21.917 25.9259 23.1506 25.4462 24.0415 24.5895C24.9667 23.6986 25.4464 22.4308 25.4464 20.9574V13.8987C25.4464 12.4595 24.9667 11.226 24.0758 10.3351ZM23.9387 20.9574C23.9387 22.0196 23.5618 22.8763 22.945 23.4588C22.3282 24.0413 21.4716 24.3497 20.4436 24.3497H13.4535C12.4255 24.3497 11.5688 24.0413 10.9521 23.4588C10.3353 22.842 10.0269 21.9854 10.0269 20.9231V13.8987C10.0269 12.8707 10.3353 12.0141 10.9521 11.3973C11.5346 10.8148 12.4255 10.5064 13.4535 10.5064H20.5122C21.5401 10.5064 22.3968 10.8148 23.0135 11.4316C23.5961 12.0483 23.9387 12.905 23.9387 13.8987V20.9574Z" fill="white"/>
</svg>
