<svg width="5" height="9" viewBox="0 0 5 9" fill="none" xmlns="http://www.w3.org/2000/svg">
<mask id="path-1-inside-1_1_1866" fill="white">
<path fill-rule="evenodd" clip-rule="evenodd" d="M0.191206 8.80918C0.446148 9.06361 0.859489 9.06361 1.11443 8.80918L4.80733 5.1237C4.94839 4.98292 5.0114 4.79374 4.99636 4.60972C5.00013 4.43815 4.93647 4.26538 4.8054 4.13445L1.11418 0.447289C0.859357 0.192744 0.446203 0.192744 0.191378 0.44729C-0.0634473 0.701836 -0.0634477 1.11454 0.191378 1.36908L3.45573 4.62985L0.191206 7.88781C-0.0637354 8.14224 -0.0637352 8.55475 0.191206 8.80918Z"/>
</mask>
<path fill-rule="evenodd" clip-rule="evenodd" d="M0.191206 8.80918C0.446148 9.06361 0.859489 9.06361 1.11443 8.80918L4.80733 5.1237C4.94839 4.98292 5.0114 4.79374 4.99636 4.60972C5.00013 4.43815 4.93647 4.26538 4.8054 4.13445L1.11418 0.447289C0.859357 0.192744 0.446203 0.192744 0.191378 0.44729C-0.0634473 0.701836 -0.0634477 1.11454 0.191378 1.36908L3.45573 4.62985L0.191206 7.88781C-0.0637354 8.14224 -0.0637352 8.55475 0.191206 8.80918Z" fill="#4B86EB"/>
<path d="M1.11443 8.80918L1.82083 9.517L1.11443 8.80918ZM0.191206 8.80918L0.897601 8.10136L0.191206 8.80918ZM4.80733 5.1237L5.51372 5.83152L5.51372 5.83151L4.80733 5.1237ZM4.99636 4.60972L3.9966 4.58778L3.99547 4.63957L3.99969 4.69119L4.99636 4.60972ZM4.8054 4.13445L4.09868 4.84195L4.09868 4.84195L4.8054 4.13445ZM1.11418 0.447289L1.8209 -0.260205L1.8209 -0.260206L1.11418 0.447289ZM0.191378 0.44729L0.898096 1.15479L0.898097 1.15478L0.191378 0.44729ZM0.191378 1.36908L-0.515341 2.07658L-0.515341 2.07658L0.191378 1.36908ZM3.45573 4.62985L4.16212 5.33766L4.87104 4.63017L4.16244 3.92235L3.45573 4.62985ZM0.191206 7.88781L0.897601 8.59563L0.897601 8.59563L0.191206 7.88781ZM0.408035 8.10136C0.543456 7.96621 0.762183 7.96621 0.897601 8.10136L-0.515189 9.517C0.130112 10.161 1.17552 10.161 1.82083 9.517L0.408035 8.10136ZM4.10093 4.41588L0.408035 8.10136L1.82083 9.517L5.51372 5.83152L4.10093 4.41588ZM3.99969 4.69119C3.99177 4.59442 4.02544 4.49123 4.10093 4.41588L5.51372 5.83151C5.87135 5.47461 6.03103 4.99306 5.99304 4.52825L3.99969 4.69119ZM4.09868 4.84195C4.02883 4.77218 3.99462 4.678 3.9966 4.58778L5.99612 4.63166C6.00563 4.19831 5.84411 3.75859 5.51212 3.42696L4.09868 4.84195ZM0.407464 1.15478L4.09868 4.84195L5.51212 3.42696L1.8209 -0.260205L0.407464 1.15478ZM0.898097 1.15478C0.762487 1.29025 0.543074 1.29025 0.407464 1.15479L1.8209 -0.260206C1.17564 -0.904757 0.129919 -0.904757 -0.515341 -0.260203L0.898097 1.15478ZM0.898096 0.661586C1.03431 0.797654 1.03431 1.01872 0.898096 1.15479L-0.51534 -0.260205C-1.16121 0.384953 -1.16121 1.43142 -0.515341 2.07658L0.898096 0.661586ZM4.16244 3.92235L0.898096 0.661586L-0.515341 2.07658L2.74901 5.33734L4.16244 3.92235ZM0.897601 8.59563L4.16212 5.33766L2.74933 3.92203L-0.51519 7.17999L0.897601 8.59563ZM0.897601 8.10136C1.03413 8.23762 1.03413 8.45937 0.897601 8.59563L-0.51519 7.17999C-1.1616 7.82511 -1.1616 8.87188 -0.515189 9.517L0.897601 8.10136Z" fill="#3B1788" mask="url(#path-1-inside-1_1_1866)"/>
</svg>
