<svg width="502" height="76" viewBox="0 0 502 76" fill="none" xmlns="http://www.w3.org/2000/svg">
<path d="M67.0763 13.933L57.8504 22.7353C51.5742 16.114 44.5136 12.8033 36.6684 12.8033C30.047 12.8033 24.4613 15.0628 19.9111 19.5816C15.3922 24.1004 13.1328 29.6705 13.1328 36.2918C13.1328 40.9048 14.137 45 16.1454 48.5774C18.1538 52.1548 20.9937 54.9634 24.6653 57.0031C28.3368 59.0429 32.4163 60.0627 36.9037 60.0627C40.7322 60.0627 44.2311 59.3567 47.4006 57.9445C50.57 56.501 54.0533 53.8964 57.8504 50.1307L66.7939 59.4508C61.6788 64.4403 56.8462 67.9079 52.296 69.8535C47.7458 71.7677 42.5523 72.7249 36.7155 72.7249C25.9519 72.7249 17.1339 69.32 10.2615 62.5104C3.4205 55.6694 0 46.9142 0 36.2447C0 29.341 1.55335 23.2061 4.66004 17.8399C7.79811 12.4738 12.2699 8.15899 18.0753 4.89539C23.9121 1.6318 30.1883 0 36.9037 0C42.615 0 48.1067 1.20816 53.3786 3.62447C58.682 6.04079 63.2479 9.47698 67.0763 13.933Z" fill="white"/>
<path d="M163.474 70.9832V1.74163H174.348C180.655 1.74163 185.268 2.14958 188.186 2.96548C192.329 4.0638 195.624 6.10355 198.071 9.08472C200.519 12.0659 201.743 15.5805 201.743 19.6286C201.743 22.2646 201.178 24.6653 200.048 26.8305C198.95 28.9644 197.146 30.9728 194.635 32.8556C198.84 34.8326 201.916 37.3117 203.861 40.2929C205.807 43.2427 206.78 46.7416 206.78 50.7897C206.78 54.6809 205.775 58.227 203.767 61.4278C201.759 64.6286 199.17 67.0293 196 68.6297C192.831 70.1987 188.453 70.9832 182.867 70.9832H163.474ZM176.654 14.3096V28.9017H179.525C182.726 28.9017 185.095 28.227 186.633 26.8776C188.202 25.5282 188.987 23.6925 188.987 21.3703C188.987 19.205 188.249 17.4948 186.774 16.2395C185.299 14.9529 183.056 14.3096 180.043 14.3096H176.654ZM176.654 40.6694V58.4152H179.949C185.409 58.4152 189.081 57.7249 190.964 56.3441C192.878 54.9634 193.835 52.955 193.835 50.319C193.835 47.3378 192.721 44.9843 190.493 43.2583C188.265 41.5324 184.562 40.6694 179.384 40.6694H176.654Z" fill="white"/>
<path d="M221.37 1.74163H259.168V14.6391H234.455V27.16H259.168V39.8222H234.455V58.0387H259.168V70.9832H221.37V1.74163Z" fill="white"/>
<path d="M266.603 1.74163H304.872V14.7333H292.257V70.9832H278.889V14.7333H266.603V1.74163Z" fill="white"/>
<path d="M315.791 1.74163H329.159V27.8661H352.318V1.74163H365.639V70.9832H352.318V40.6224H329.159V70.9832H315.791V1.74163Z" fill="white"/>
<path d="M433.843 1.74163V70.9832H420.663V27.6307L394.821 70.9832H383.336V1.74163H396.516V46.5062L422.734 1.74163H433.843Z" fill="white"/>
<path d="M451.681 1.74163H465.002V25.5596L483.783 1.74163H499.646L475.452 32.6203L502 70.9832H486.372L465.002 40.2458V70.9832H451.681V1.74163Z" fill="white"/>
<path d="M86.1077 18.0367C85.721 17.8185 85.3296 17.6887 84.954 17.5259C84.5869 17.367 84.2157 17.2167 83.8466 17.0624C83.4655 16.903 83.0846 16.7432 82.7033 16.584C82.3223 16.4249 81.9408 16.2662 81.5595 16.1074C81.178 15.9487 80.7965 15.7907 80.415 15.632C80.0456 15.4782 79.676 15.3249 79.3069 15.1702C78.9264 15.0107 78.5465 14.8496 78.1392 14.6776C78.1922 14.6053 78.2244 14.5368 78.2775 14.4925C79.8014 13.2195 81.354 11.9838 83.0402 10.9225C83.8991 10.3818 84.8126 9.97253 85.8096 9.75588C86.6784 9.56712 87.5515 9.50266 88.4246 9.71547C88.6989 9.78243 88.9685 9.88075 89.228 9.99254C90.1646 10.3956 91.0961 10.8107 92.0298 11.2207C92.1594 11.2777 92.2905 11.331 92.4457 11.3964C92.564 11.3081 92.6885 11.2194 92.8085 11.1251C95.1019 9.32583 97.5877 7.84137 100.259 6.66207C101.773 5.99402 103.328 5.43794 104.924 4.99462C106.007 4.69369 107.104 4.45048 108.212 4.25018C109.614 3.99658 111.029 3.85477 112.448 3.74625C112.835 3.71662 113.224 3.7172 113.613 3.71181C114.014 3.70623 114.415 3.71392 114.816 3.7095C115.918 3.69738 117.013 3.79705 118.108 3.90672C118.997 3.99581 119.879 4.12992 120.757 4.28404C121.33 4.38448 121.899 4.5082 122.465 4.64135C123.736 4.94056 124.988 5.30691 126.216 5.74907C129.559 6.95242 132.648 8.61718 135.476 10.7558C135.794 10.9966 136.109 11.2407 136.439 11.4936C136.549 11.4518 136.657 11.4156 136.761 11.3702C137.85 10.8955 138.942 10.4293 140.024 9.94059C140.891 9.54884 141.797 9.48669 142.721 9.59617C143.867 9.73182 144.929 10.1172 145.919 10.7058C146.863 11.2675 147.761 11.8963 148.63 12.5639C149.376 13.1371 150.105 13.7323 150.841 14.3193C150.929 14.3899 151.01 14.4708 151.115 14.5664C151.014 14.6605 150.906 14.6911 150.804 14.7334C148.717 15.5987 146.631 16.4643 144.544 17.3302C144.008 17.5528 143.471 17.7758 142.936 18.0006C142.867 18.0294 142.803 18.0708 142.737 18.1068C143.305 18.9971 143.872 19.8658 144.418 20.7476C144.965 21.6329 145.441 22.5575 145.89 23.4957C146.339 24.4337 146.741 25.3911 147.101 26.3655C147.461 27.3397 147.777 28.3287 148.044 29.3318C148.312 30.335 148.536 31.3484 148.708 32.3723C148.88 33.3961 148.99 34.4276 149.098 35.4603C149.206 36.4961 149.213 37.5314 149.226 38.5693C149.238 39.6104 149.116 40.641 149.021 41.6741C148.927 42.6954 148.772 43.7086 148.576 44.7155C148.379 45.7347 148.134 46.7428 147.845 47.7403C147.555 48.7375 147.219 49.7187 146.839 50.6859C146.46 51.6534 146.037 52.6012 145.57 53.5305C145.103 54.4603 144.593 55.3663 144.045 56.2513C143.496 57.1364 142.905 57.9934 142.277 58.8248C141.649 59.6564 140.984 60.4576 140.282 61.2303C139.581 62.0032 138.845 62.7411 138.077 63.4494C137.31 64.1577 136.511 64.8281 135.681 65.4636C122.316 75.6992 103.483 74.9628 90.9588 63.7013C84.5129 57.7654 80.6874 50.4929 79.776 41.8088C78.8656 33.1358 81.0232 25.2178 86.1077 18.0367ZM84.9355 40.2225C84.9155 40.3689 84.8945 40.4424 84.8971 40.5154C84.9138 41.002 84.9109 41.4909 84.9606 41.9742C85.088 43.2124 85.3289 44.4315 85.6647 45.631C86.1845 47.487 86.8862 49.2742 87.7413 51.0042C87.8471 51.2185 87.9905 51.3361 88.2092 51.4227C89.4224 51.9025 90.6043 52.4515 91.7709 53.0332C94.7808 54.5338 97.6513 56.263 100.396 58.1973C102.264 59.5134 104.058 60.9211 105.776 62.4239C107.495 63.927 109.129 65.5154 110.663 67.2026C110.82 67.3744 110.982 67.472 111.221 67.4953C112.278 67.5982 113.335 67.6777 114.397 67.6871C115.655 67.6983 116.906 67.6221 118.156 67.4899C118.365 67.4678 118.509 67.3841 118.649 67.2334C119.254 66.5831 119.858 65.9312 120.485 65.3022C123.248 62.5314 126.252 60.0453 129.482 57.825C131.717 56.289 134.04 54.8988 136.452 53.6546C137.839 52.9389 139.25 52.2697 140.711 51.7088C140.891 51.6397 141.014 51.5337 141.091 51.3542C141.218 51.06 141.373 50.7775 141.503 50.4846C142.255 48.7943 142.886 47.0634 143.305 45.2593C143.558 44.1708 143.741 43.0727 143.812 41.9579C143.832 41.6385 143.829 41.3175 143.83 40.9974C143.83 40.9439 143.796 40.8902 143.779 40.8398C143.739 40.848 143.723 40.8469 143.714 40.854C143.675 40.8867 143.636 40.9204 143.599 40.9564C142.637 41.9029 141.547 42.6762 140.346 43.2978C138.513 44.2474 136.551 44.7794 134.506 45.0226C132.917 45.2116 131.331 45.1964 129.747 44.9445C128.889 44.8079 128.046 44.6186 127.226 44.3361C124.51 43.3996 122.257 41.8426 120.623 39.4652C120.583 39.4071 120.517 39.3661 120.451 39.3055C119.957 39.7076 119.477 40.0967 118.998 40.4867C118.509 40.8856 118.019 41.285 117.53 41.6845C117.051 42.0758 116.576 42.4724 116.092 42.858C115.601 43.2494 115.131 43.6673 114.607 44.0498C114.118 43.6398 113.645 43.2436 113.171 42.8474C112.697 42.4503 112.223 42.0529 111.749 41.656C111.264 41.2508 110.784 40.8407 110.294 40.4422C109.817 40.0543 109.366 39.6351 108.851 39.2606C108.781 39.3449 108.724 39.4105 108.67 39.479C108.433 39.7832 108.214 40.103 107.958 40.3907C106.073 42.5095 103.697 43.8079 100.945 44.4635C100.063 44.6736 99.165 44.7817 98.2594 44.8479C96.9217 44.9459 95.5941 44.857 94.2731 44.6694C93.3258 44.5349 92.3936 44.3205 91.4768 44.0394C89.0901 43.3075 86.9616 42.1409 85.1653 40.4055C85.1131 40.3541 85.0507 40.3131 84.9355 40.2225ZM144.739 30.8874C144.75 24.3737 139.43 19.045 132.827 18.9959C126.198 18.9467 120.765 24.2276 120.731 30.8216C120.696 37.3636 125.988 42.7123 132.625 42.7706C139.389 42.8299 144.747 37.4108 144.739 30.8874ZM84.597 30.8803C84.5911 37.3671 89.861 42.7231 96.5111 42.7708C103.251 42.8191 108.638 37.4177 108.607 30.8287C108.576 24.2651 103.189 18.9917 96.595 18.9955C89.9626 18.9992 84.5954 24.3304 84.597 30.8803ZM98.0722 13.7498C98.178 13.8008 98.2891 13.8595 98.4041 13.9089C101.203 15.1117 104.001 16.3164 106.802 17.514C108.024 18.0366 109.254 18.5405 110.478 19.0615C110.878 19.2322 111.295 19.2926 111.724 19.3109C112.167 19.3298 112.605 19.2834 113.037 19.2003C113.574 19.0967 114.084 18.9136 114.512 18.5555C114.549 18.5243 114.6 18.5082 114.654 18.4797C114.754 18.548 114.85 18.6105 114.943 18.6784C115.184 18.856 115.452 18.9861 115.734 19.0796C116.509 19.3357 117.307 19.3819 118.112 19.2994C118.315 19.2786 118.519 19.2166 118.709 19.1414C119.262 18.9236 119.809 18.694 120.355 18.461C122.765 17.4324 125.174 16.4018 127.583 15.3697C128.722 14.8816 129.859 14.3886 130.996 13.8978C131.098 13.8537 131.211 13.8248 131.286 13.7086C131.226 13.6553 131.184 13.6087 131.133 13.5732C130.763 13.3144 130.4 13.0459 130.02 12.8023C127.873 11.4245 125.534 10.4813 123.073 9.81937C121.724 9.45629 120.355 9.18749 118.969 8.99854C117.955 8.86039 116.938 8.75822 115.917 8.71608C114.74 8.66759 113.563 8.68375 112.386 8.77784C111.095 8.88117 109.813 9.04972 108.542 9.28851C107.64 9.45783 106.749 9.67487 105.865 9.92443C104.055 10.4353 102.314 11.1105 100.658 11.9975C99.8261 12.4431 99.0296 12.9445 98.2718 13.5056C98.1932 13.5639 98.0825 13.5997 98.0722 13.7498ZM114.653 41.2742C114.743 41.193 114.804 41.1474 114.853 41.0924C115.207 40.701 115.559 40.3074 115.912 39.9154C116.981 38.7298 118.049 37.5445 119.118 36.3591C119.17 36.3017 119.22 36.2432 119.271 36.1849C119.346 36.098 119.352 36.0035 119.311 35.8984C119.209 35.6408 119.041 35.4339 118.832 35.2554C118.483 34.9571 118.075 34.7678 117.643 34.6237C116.777 34.3349 115.879 34.2312 114.974 34.1765C114.35 34.139 113.731 34.2104 113.117 34.2966C112.541 34.3774 111.971 34.4977 111.429 34.7197C111.068 34.8677 110.726 35.0458 110.439 35.3137C110.268 35.4736 110.13 35.6548 110.038 35.8732C109.981 36.01 110 36.1187 110.099 36.2244C110.204 36.3371 110.304 36.4547 110.408 36.5696C111.561 37.8518 112.714 39.1344 113.869 40.4161C114.118 40.6924 114.371 40.9652 114.653 41.2742Z" fill="white"/>
<path d="M127.775 25.0506C129.372 24.7836 131.995 25.5828 133.347 27.9805C134.637 30.2679 134.229 33.0848 132.384 34.9287C130.509 36.8024 127.656 37.1624 125.409 35.9591C122.911 34.6216 122.079 31.965 122.364 30.2771C122.448 30.2042 122.533 30.254 122.619 30.2762C123.333 30.4619 124.061 30.4934 124.767 30.3033C126.341 29.8802 127.354 28.8693 127.807 27.3138C127.912 26.954 127.958 26.5894 127.946 26.2145C127.937 25.9573 127.923 25.7043 127.845 25.456C127.804 25.3248 127.779 25.1872 127.775 25.0506Z" fill="white"/>
<path d="M101.685 25.0234C101.655 25.19 101.645 25.3184 101.61 25.4392C101.434 26.034 101.45 26.6233 101.62 27.2179C101.705 27.5144 101.794 27.8072 101.933 28.083C102.564 29.3367 103.581 30.1062 104.965 30.3619C105.562 30.4722 106.176 30.4479 106.774 30.295C106.859 30.2732 106.946 30.2563 107.058 30.2315C107.081 30.3165 107.114 30.3844 107.118 30.4543C107.293 33.2545 105.425 35.7447 102.774 36.4527C100.365 37.0966 97.8851 36.161 96.5014 34.291C95.6057 33.0809 95.206 31.7234 95.3684 30.2407C95.5644 28.4516 96.427 27.0203 97.9337 25.9964C98.9664 25.2947 100.117 24.959 101.373 24.9976C101.462 25.0001 101.55 25.0121 101.685 25.0234Z" fill="white"/>
</svg>
