<svg width="5" height="9" viewBox="0 0 5 9" fill="none" xmlns="http://www.w3.org/2000/svg">
<mask id="path-1-inside-1_1_1869" fill="white">
<path fill-rule="evenodd" clip-rule="evenodd" d="M4.80733 8.80918C4.55239 9.06361 4.13905 9.06361 3.8841 8.80918L0.191206 5.1237C0.0501432 4.98292 -0.0128675 4.79374 0.00217433 4.60972C-0.00159078 4.43815 0.0620627 4.26538 0.193135 4.13445L3.88435 0.447289C4.13918 0.192744 4.55233 0.192744 4.80716 0.44729C5.06198 0.701836 5.06198 1.11454 4.80716 1.36908L1.54281 4.62985L4.80733 7.88781C5.06227 8.14224 5.06227 8.55475 4.80733 8.80918Z"/>
</mask>
<path fill-rule="evenodd" clip-rule="evenodd" d="M4.80733 8.80918C4.55239 9.06361 4.13905 9.06361 3.8841 8.80918L0.191206 5.1237C0.0501432 4.98292 -0.0128675 4.79374 0.00217433 4.60972C-0.00159078 4.43815 0.0620627 4.26538 0.193135 4.13445L3.88435 0.447289C4.13918 0.192744 4.55233 0.192744 4.80716 0.44729C5.06198 0.701836 5.06198 1.11454 4.80716 1.36908L1.54281 4.62985L4.80733 7.88781C5.06227 8.14224 5.06227 8.55475 4.80733 8.80918Z" fill="#4B86EB"/>
<path d="M3.8841 8.80918L3.17771 9.517L3.8841 8.80918ZM4.80733 8.80918L4.10093 8.10136L4.80733 8.80918ZM0.191206 5.1237L-0.51519 5.83152L-0.51519 5.83151L0.191206 5.1237ZM0.00217433 4.60972L1.00193 4.58778L1.00307 4.63957L0.99885 4.69119L0.00217433 4.60972ZM0.193135 4.13445L0.899854 4.84195L0.899853 4.84195L0.193135 4.13445ZM3.88435 0.447289L3.17763 -0.260205L3.17764 -0.260206L3.88435 0.447289ZM4.80716 0.44729L4.10044 1.15479L4.10044 1.15478L4.80716 0.44729ZM4.80716 1.36908L5.51388 2.07658L5.51388 2.07658L4.80716 1.36908ZM1.54281 4.62985L0.836413 5.33766L0.127495 4.63017L0.836091 3.92235L1.54281 4.62985ZM4.80733 7.88781L4.10093 8.59563L4.10093 8.59563L4.80733 7.88781ZM4.5905 8.10136C4.45508 7.96621 4.23635 7.96621 4.10093 8.10136L5.51372 9.517C4.86842 10.161 3.82301 10.161 3.17771 9.517L4.5905 8.10136ZM0.897602 4.41588L4.5905 8.10136L3.17771 9.517L-0.51519 5.83152L0.897602 4.41588ZM0.99885 4.69119C1.00676 4.59442 0.973098 4.49123 0.897602 4.41588L-0.51519 5.83151C-0.872811 5.47461 -1.0325 4.99306 -0.994502 4.52825L0.99885 4.69119ZM0.899853 4.84195C0.969701 4.77218 1.00391 4.678 1.00193 4.58778L-0.997585 4.63166C-1.00709 4.19831 -0.845576 3.75859 -0.513583 3.42696L0.899853 4.84195ZM4.59107 1.15478L0.899854 4.84195L-0.513583 3.42696L3.17763 -0.260205L4.59107 1.15478ZM4.10044 1.15478C4.23605 1.29025 4.45546 1.29025 4.59107 1.15479L3.17764 -0.260206C3.8229 -0.904757 4.86862 -0.904757 5.51388 -0.260203L4.10044 1.15478ZM4.10044 0.661586C3.96422 0.797654 3.96422 1.01872 4.10044 1.15479L5.51388 -0.260205C6.15974 0.384953 6.15974 1.43142 5.51388 2.07658L4.10044 0.661586ZM0.836091 3.92235L4.10044 0.661586L5.51388 2.07658L2.24953 5.33734L0.836091 3.92235ZM4.10093 8.59563L0.836413 5.33766L2.2492 3.92203L5.51372 7.17999L4.10093 8.59563ZM4.10093 8.10136C3.9644 8.23762 3.9644 8.45937 4.10093 8.59563L5.51372 7.17999C6.16014 7.82511 6.16014 8.87188 5.51372 9.517L4.10093 8.10136Z" fill="#3B1788" mask="url(#path-1-inside-1_1_1869)"/>
</svg>
