<svg width="14" height="14" viewBox="0 0 14 14" fill="none" xmlns="http://www.w3.org/2000/svg">
<path d="M0.400289 0.40029C-0.120409 0.920989 -0.120409 1.76521 0.40029 2.28591L5.11434 6.99996L0.400304 11.714C-0.120394 12.2347 -0.120395 13.0789 0.400304 13.5996C0.921003 14.1203 1.76522 14.1203 2.28592 13.5996L6.99996 8.88558L11.714 13.5996C12.2347 14.1203 13.0789 14.1203 13.5996 13.5996C14.1203 13.0789 14.1203 12.2347 13.5996 11.714L8.88558 6.99996L13.5996 2.28591C14.1203 1.76521 14.1203 0.920992 13.5996 0.400293C13.0789 -0.120406 12.2347 -0.120406 11.714 0.400293L6.99996 5.11434L2.28591 0.40029C1.76521 -0.120409 0.920989 -0.120409 0.400289 0.40029Z" fill="#3B1788"/>
</svg>
